<svg version="1.1" id="Layer_1" xmlns="http://www.w3.org/2000/svg" xmlns:xlink="http://www.w3.org/1999/xlink" x="0px" y="0px"
	 width="" viewBox="50 0 260 121" enable-background="new 0 0 0 121" xml:space="preserve">
<path fill="#191C25" opacity="1.000000" stroke="none" 
	d="




z"/>
<path fill="#F6F6F7" opacity="1.000000" stroke="none" 
	d="
M187.404266,74.833588 
	C178.663803,71.631615 178.032379,55.178455 183.594864,49.186337 
	C187.367233,45.122601 192.529144,44.755417 200.333099,48.303726 
	C200.333099,43.895939 200.333099,39.647591 200.333099,35.074562 
	C202.953262,35.074562 205.190231,35.074562 207.670898,35.074562 
	C207.670898,48.218792 207.670898,61.285824 207.670898,75.375687 
	C204.774368,74.779762 202.113708,74.232361 198.328156,73.453529 
	C196.273636,75.501541 192.285477,76.415169 187.404266,74.833588 
M187.749054,58.792320 
	C187.750977,62.738796 186.989441,67.155273 191.870544,68.930962 
	C197.254272,70.889496 201.142807,66.336929 200.428726,59.169270 
	C200.052155,55.389099 198.792450,52.251171 194.380615,51.998180 
	C190.326569,51.765705 188.318390,54.068748 187.749054,58.792320 
z"/>
<path fill="#2A14DF" opacity="1.000000" stroke="none" 
	d="
M364.959106,72.658188 
	C364.942627,59.924335 364.942627,47.654545 364.942627,35.123631 
	C367.457031,35.123631 369.386017,35.123631 371.842407,35.123631 
	C371.842407,39.607479 371.842407,44.019947 371.842407,49.232578 
	C373.657837,48.202885 374.711090,47.549477 375.812195,46.990257 
	C381.846161,43.925804 389.269928,46.193478 390.933136,52.673126 
	C392.188690,57.564411 392.357697,63.316402 391.046692,68.153038 
	C388.891724,76.102951 381.081909,77.594414 372.800201,72.555702 
	C370.583313,75.797028 367.808258,75.997955 364.959106,72.658188 
M380.938812,52.225735 
	C377.284821,51.435314 374.239594,52.201458 372.877563,56.012650 
	C371.424133,60.079670 371.240662,64.239189 374.371094,67.662582 
	C377.007294,70.545540 382.221863,69.568069 384.075439,66.104607 
	C386.224762,62.088646 385.140320,55.984123 380.938812,52.225735 
z"/>
<path fill="#F6F6F6" opacity="1.000000" stroke="none" 
	d="
M124.656822,75.363197 
	C114.464577,73.263268 109.869507,67.227821 109.779022,56.279366 
	C109.691841,45.728909 114.314224,38.955681 122.646317,36.884426 
	C129.913773,35.077831 140.391357,37.716354 142.140472,45.216354 
	C140.529175,46.221073 138.760956,47.323643 136.793701,48.550316 
	C135.825211,47.376938 135.200394,46.003304 134.150848,45.477566 
	C132.008163,44.404243 129.654434,43.165672 127.356422,43.100803 
	C120.893814,42.918362 117.674416,47.456154 117.676636,55.991325 
	C117.678841,64.475365 120.960991,68.846046 127.423561,68.970848 
	C131.817657,69.055717 134.058716,67.431763 137.027374,61.688869 
	C138.853485,62.619987 140.690323,63.556580 142.488159,64.473282 
	C140.471115,72.810226 135.187195,76.069916 124.656822,75.363197 
z"/>
<path fill="#2914DC" opacity="1.000000" stroke="none" 
	d="
M247.731079,46.977188 
	C252.087982,35.198097 267.335327,34.054882 274.433624,39.331730 
	C276.053894,40.536205 277.937195,42.668011 277.934296,44.369991 
	C277.931946,45.735909 275.258545,47.097256 274.009827,48.241291 
	C271.450623,46.344479 269.693481,44.406746 267.511749,43.549088 
	C261.877075,41.334034 256.091309,44.357239 254.881012,50.345119 
	C254.177185,53.827412 254.310242,57.598881 254.738251,61.159512 
	C255.271927,65.599327 258.193909,68.311478 262.673584,68.871758 
	C267.035645,69.417320 270.544403,67.994774 272.465240,63.706394 
	C272.725769,63.124760 273.164795,62.623066 273.689209,61.830311 
	C275.528809,62.788864 277.249329,63.685364 278.886688,64.538536 
	C277.057098,71.813927 272.953308,75.034019 265.176331,75.608421 
	C257.455597,76.178665 250.668732,72.246361 247.931259,65.412445 
	C245.549545,59.466717 245.597870,53.405521 247.731079,46.977188 
z"/>
<path fill="#F8F8F9" opacity="1.000000" stroke="none" 
	d="
M218.334000,71.661423 
	C214.059616,66.598991 213.909866,60.990978 215.227951,55.357117 
	C216.932022,48.073410 224.517471,44.222462 232.621902,46.130116 
	C239.134827,47.663158 241.949738,53.258537 240.495590,62.399399 
	C234.502197,62.399399 228.427643,62.399399 222.353088,62.399399 
	C222.057709,62.833851 221.762344,63.268303 221.466965,63.702755 
	C223.121643,65.449768 224.595917,68.387619 226.472183,68.671844 
	C229.479889,69.127449 232.753860,67.825386 235.915298,67.266190 
	C235.910645,66.743591 235.905991,66.220993 235.901321,65.698395 
	C237.421188,66.621155 238.941040,67.543907 240.438889,68.453300 
	C236.989746,76.539749 227.032547,78.038902 218.334000,71.661423 
M234.001953,55.839180 
	C233.337936,52.467903 231.082809,51.059978 227.888138,51.396870 
	C224.560669,51.747761 222.577820,53.646164 222.458496,58.081234 
	C226.499695,57.583385 230.250214,57.121349 234.001953,55.839180 
z"/>
<path fill="#F7F7F7" opacity="1.000000" stroke="none" 
	d="
M175.000336,62.709187 
	C173.390503,70.907272 170.092453,74.364273 163.265533,75.420029 
	C157.029068,76.384476 151.457703,73.927788 148.706070,69.000076 
	C145.623230,63.479210 146.272705,54.529873 150.203979,50.141823 
	C154.522919,45.321064 160.131485,44.928997 165.842270,46.432209 
	C171.203506,47.843407 173.981873,51.949783 174.864075,57.292538 
	C175.132553,58.918365 174.980469,60.613636 175.000336,62.709187 
M162.978790,52.144154 
	C159.530716,51.523712 155.859818,52.084240 155.322189,55.749851 
	C154.761719,59.571087 155.091034,64.067329 156.683319,67.502792 
	C158.198792,70.772530 164.464066,69.649422 166.387192,66.334732 
	C168.842056,62.103531 167.615692,55.715664 162.978790,52.144154 
z"/>
<!-- <path fill="#2914DD" opacity="1.000000" stroke="none" 
	d="
M311.178223,60.948242 
	C310.515472,70.721848 305.327789,75.865395 296.800934,75.647568 
	C288.415527,75.433357 283.020630,69.532433 283.053406,60.610630 
	C283.086975,51.475403 288.243195,45.974361 296.879150,45.860378 
	C305.934662,45.740856 310.696747,50.616940 311.178223,60.948242 
M300.499817,52.730099 
	C292.578705,49.557320 289.190857,55.989388 291.232056,64.471100 
	C291.689484,66.371788 294.526276,68.372345 296.666534,69.031219 
	C299.566528,69.923950 302.177277,68.415550 303.137756,65.170845 
	C304.411346,60.868504 304.588867,56.709816 300.499817,52.730099 
z"/> -->
<!-- <path fill="#2914DD" opacity="1.000000" stroke="none" 
	d="
M346.675934,51.878582 
	C342.982513,52.613121 339.705017,53.424965 336.076843,54.323666 
	C333.077820,50.949520 333.026642,49.324711 337.645447,47.786701 
	C341.569794,46.479923 346.172150,45.889996 350.169586,46.629986 
	C352.467438,47.055359 355.031952,50.464844 355.899963,53.058586 
	C356.961304,56.230042 356.089447,59.995991 356.598602,63.423912 
	C356.914368,65.550110 358.315369,67.498795 359.086853,69.579956 
	C359.526672,70.766418 360.174835,72.236771 359.810852,73.249107 
	C359.503723,74.103302 357.781433,75.091499 356.845001,74.951721 
	C354.390381,74.585358 352.022888,73.634979 349.015137,72.736435 
	C347.703918,73.364204 345.620026,74.818657 343.320068,75.367279 
	C338.635010,76.484818 334.151031,73.777802 333.073334,69.653519 
	C331.745270,64.571121 333.684448,60.811272 338.785309,59.074646 
	C341.287872,58.222630 344.003662,57.985558 346.487946,57.094093 
	C349.775238,55.914482 350.503448,54.092625 346.675934,51.878582 
M341.291504,69.315521 
	C347.653046,70.864220 350.320129,68.090302 348.910339,61.391514 
	C339.620911,63.187592 339.428986,63.360062 341.291504,69.315521 
z"/> -->
<!-- <path fill="#EDEDEE" opacity="1.000000" stroke="none" 
	d="
M90.741486,80.559235 
	C82.206375,79.852150 80.516403,78.096176 80.376343,70.173363 
	C80.338203,68.016129 80.564369,65.826508 80.251961,63.713444 
	C80.094360,62.647400 79.088104,61.646946 78.315407,60.745579 
	C77.121094,59.352386 75.798019,58.069572 74.735092,55.992512 
	C80.099045,55.120365 80.831154,52.090118 80.388062,48.256290 
	C80.274483,47.273537 80.360283,46.266174 80.374817,45.270416 
	C80.505920,36.291409 83.351700,33.919441 92.682228,35.186787 
	C92.682228,36.608070 92.682228,38.056133 92.682228,40.088158 
	C87.544060,39.501488 87.479507,42.922363 87.559303,46.711540 
	C87.641884,50.633652 88.299347,54.884140 83.602875,57.462685 
	C88.418404,60.404907 87.667534,65.081833 87.559143,69.454620 
	C87.472435,72.953125 88.194099,75.439934 93.638237,74.874130 
	C92.595634,77.242996 91.868690,78.894661 90.741486,80.559235 
z"/> -->
<!-- <path fill="#2914DE" opacity="1.000000" stroke="none" 
	d="
M421.300476,73.987579 
	C420.469849,78.565468 417.521484,79.947456 413.745148,80.474091 
	C409.803345,81.023796 408.492065,79.476021 409.650391,75.223511 
	C414.542877,75.641190 414.471100,72.226616 414.428284,68.636406 
	C414.378906,64.495880 413.797699,60.075237 418.789764,57.610325 
	C413.861176,54.950932 414.458344,50.576721 414.397186,46.440910 
	C414.355743,43.638756 414.878723,40.718437 410.759735,39.920288 
	C409.899017,39.753502 409.492157,37.244812 408.813202,35.669209 
	C418.070496,33.823425 421.388916,36.359905 421.635712,44.594841 
	C421.690521,46.423950 421.246521,48.382004 421.766876,50.051746 
	C422.309723,51.793655 423.994293,53.153629 424.708069,54.876026 
	C425.372406,56.479065 425.416077,58.339310 425.733002,60.086323 
	C420.140381,60.898479 421.932922,65.258163 421.657410,68.607704 
	C421.521301,70.262207 421.473053,71.923920 421.300476,73.987579 
z"/> -->
<!-- <path fill="#2A14E1" opacity="1.000000" stroke="none" 
	d="
M317.980865,65.712448 
	C317.979065,55.335197 317.979065,45.421925 317.979065,35.187241 
	C320.365479,35.187241 322.279358,35.187241 325.098389,35.187241 
	C325.098389,38.828571 325.098358,42.549259 325.098358,46.269947 
	C325.098358,51.410172 324.973755,56.554565 325.145721,61.689030 
	C325.246826,64.707878 323.693298,68.474014 328.517517,69.866745 
	C329.302612,70.093391 329.382416,72.762970 329.772369,74.243286 
	C322.350708,77.204788 318.403687,74.344322 317.980865,65.712448 
z"/> -->
<!-- <path fill="#1F2129" opacity="1.000000" stroke="none" 
	d="
M187.797363,58.359554 
	C188.318390,54.068748 190.326569,51.765705 194.380615,51.998180 
	C198.792450,52.251171 200.052155,55.389099 200.428726,59.169270 
	C201.142807,66.336929 197.254272,70.889496 191.870544,68.930962 
	C186.989441,67.155273 187.750977,62.738796 187.797363,58.359554 
z"/> -->
<!-- <path fill="#191C29" opacity="1.000000" stroke="none" 
	d="
M381.304382,52.394482 
	C385.140320,55.984123 386.224762,62.088646 384.075439,66.104607 
	C382.221863,69.568069 377.007294,70.545540 374.371094,67.662582 
	C371.240662,64.239189 371.424133,60.079670 372.877563,56.012650 
	C374.239594,52.201458 377.284821,51.435314 381.304382,52.394482 
z"/> -->
<!-- <path fill="#363940" opacity="1.000000" stroke="none" 
	d="
M234.001343,56.249245 
	C230.250214,57.121349 226.499695,57.583385 222.458496,58.081234 
	C222.577820,53.646164 224.560669,51.747761 227.888138,51.396870 
	C231.082809,51.059978 233.337936,52.467903 234.001343,56.249245 
z"/> -->
<!-- <path fill="#20232B" opacity="1.000000" stroke="none" 
	d="
M163.348785,52.289822 
	C167.615692,55.715664 168.842056,62.103531 166.387192,66.334732 
	C164.464066,69.649422 158.198792,70.772530 156.683319,67.502792 
	C155.091034,64.067329 154.761719,59.571087 155.322189,55.749851 
	C155.859818,52.084240 159.530716,51.523712 163.348785,52.289822 
z"/> -->
<!-- <path fill="#191C29" opacity="1.000000" stroke="none" 
	d="
M300.837036,52.943565 
	C304.588867,56.709816 304.411346,60.868504 303.137756,65.170845 
	C302.177277,68.415550 299.566528,69.923950 296.666534,69.031219 
	C294.526276,68.372345 291.689484,66.371788 291.232056,64.471100 
	C289.190857,55.989388 292.578705,49.557320 300.837036,52.943565 
z"/> -->
<!-- <path fill="#1A1B32" opacity="1.000000" stroke="none" 
	d="
M340.993073,69.044891 
	C339.428986,63.360062 339.620911,63.187592 348.910339,61.391514 
	C350.320129,68.090302 347.653046,70.864220 340.993073,69.044891 
z"/> -->
</svg>