<svg version="1.1" id="Layer_1" xmlns="http://www.w3.org/2000/svg" xmlns:xlink="http://www.w3.org/1999/xlink" x="100px" y="100px"
	 width="1000px" height="1000px"  viewBox="0 0 500 500" enable-background="new 0 0 800 800" xml:space="preserve">
<path fill="#191C24" opacity="1.000000" stroke="none" 
	d="
M452.000000,501.000000 
	C301.333374,501.000000 151.166733,501.000000 1.000081,501.000000 
	C1.000054,334.333405 1.000054,167.666824 1.000027,1.000170 
	C167.666550,1.000113 334.333099,1.000113 500.999756,1.000057 
	C500.999817,167.666519 500.999817,334.333038 500.999908,500.999756 
	C484.833344,501.000000 468.666656,501.000000 452.000000,501.000000 
M180.340256,252.189819 
	C180.235672,253.846405 180.038742,255.503128 180.041107,257.159546 
	C180.060287,270.545349 190.548721,275.405457 198.294220,269.714020 
	C202.272781,270.387543 204.878647,270.828705 207.678986,271.302795 
	C207.678986,257.278137 207.678986,244.216003 207.678986,231.084717 
	C205.198425,231.084717 202.954529,231.084717 200.321045,231.084717 
	C200.321045,235.662079 200.321045,239.903397 200.321045,244.307785 
	C189.805527,239.460983 183.648071,241.773758 180.340256,252.189819 
M392.276978,260.679108 
	C392.201721,257.544983 392.578094,254.318909 391.962616,251.294739 
	C390.404144,243.637726 383.893463,239.891861 377.043945,242.406387 
	C375.549194,242.955139 374.192566,243.880005 372.176239,244.947144 
	C372.176239,240.056808 372.176239,235.654739 372.176239,230.958069 
	C369.599823,230.958069 367.515686,230.958069 365.337891,230.958069 
	C365.337891,244.389984 365.337891,257.579590 365.337891,271.624634 
	C368.286377,270.857483 370.632782,270.247009 374.042328,269.359955 
	C382.396393,274.258606 389.156189,271.786835 392.276978,260.679108 
M124.227997,232.635910 
	C116.537689,233.756851 111.788559,238.394104 110.406517,245.746323 
	C108.862251,253.961594 109.115601,262.136658 116.404549,268.137238 
	C123.542801,274.013763 140.984421,273.101379 142.406311,260.418640 
	C140.634048,259.528412 138.804520,258.609375 136.989349,257.697601 
	C134.087250,263.415192 131.758835,265.084442 127.345581,264.967682 
	C120.898270,264.797089 117.656319,260.418488 117.677704,251.910141 
	C117.699135,243.387360 120.951904,238.832520 127.438019,239.116867 
	C129.853531,239.222763 132.267807,240.748886 134.546310,241.897766 
	C135.445724,242.351288 135.973480,243.541916 136.814865,244.573990 
	C138.810745,243.322098 140.568298,242.219681 142.501511,241.007095 
	C138.596756,233.255112 132.246017,231.979248 124.227997,232.635910 
M267.684692,271.253998 
	C273.692535,270.274200 277.492645,266.922577 279.270966,260.713593 
	C277.274628,259.662018 275.563843,258.760834 273.715332,257.787079 
	C273.162231,258.626343 272.736755,259.128357 272.467468,259.703522 
	C270.488708,263.929474 267.008606,265.413849 262.624146,264.843018 
	C258.121979,264.256866 255.218338,261.507935 254.756927,257.054718 
	C254.370148,253.321762 254.192261,249.334930 255.085495,245.750473 
	C256.879456,238.551529 265.751953,236.508087 271.005829,241.732300 
	C271.800690,242.522675 272.529602,243.379333 273.421875,244.349808 
	C275.293579,243.238052 276.962402,242.246796 278.774994,241.170151 
	C277.098053,236.662003 274.103546,234.198410 270.040039,233.180527 
	C262.625275,231.323135 255.710266,232.088425 250.421646,238.303009 
	C245.419250,244.181274 244.636368,255.598373 248.651199,262.947144 
	C252.615326,270.203094 259.142670,272.166473 267.684692,271.253998 
M230.077148,241.847397 
	C221.133728,241.831314 216.144348,245.457825 214.905197,252.875031 
	C213.411072,261.818604 216.719681,268.709045 223.532898,270.843018 
	C230.948181,273.165527 237.337723,270.894348 240.536026,264.595306 
	C239.078384,263.647247 237.595871,262.682983 236.113358,261.718750 
	C236.112915,262.216095 236.112488,262.713440 236.112045,263.210785 
	C232.792038,263.762482 229.377350,265.016174 226.189682,264.586334 
	C224.449966,264.351715 223.094849,261.265076 221.566269,259.464661 
	C221.894943,259.039886 222.223618,258.615143 222.552277,258.190399 
	C228.618027,258.190399 234.683777,258.190399 240.687592,258.190399 
	C241.743759,247.772263 239.142517,243.613113 230.077148,241.847397 
M148.179703,264.091644 
	C152.584473,271.069641 160.239822,273.522705 167.431305,270.260559 
	C173.927261,267.313934 176.883072,259.006958 174.290558,250.983612 
	C172.102890,244.213196 166.621002,241.037399 158.614853,241.902267 
	C152.241531,242.590744 147.578201,247.036911 147.102234,253.576385 
	C146.867401,256.802887 147.634216,260.102325 148.179703,264.091644 
M306.034119,244.371353 
	C304.852356,243.768463 303.730682,242.952469 302.478485,242.599350 
	C296.897644,241.025513 291.435852,241.144730 287.139099,245.552765 
	C282.326721,250.489807 282.117981,256.601288 284.048767,262.812012 
	C285.786682,268.402405 290.151154,270.884583 295.687531,271.553436 
	C301.563538,272.263306 307.015869,269.513855 309.554993,264.675873 
	C312.852570,258.392731 311.679840,250.484070 306.034119,244.371353 
M355.952972,247.865677 
	C351.795837,239.885254 341.096130,239.367599 333.490509,247.119019 
	C334.434937,248.451767 335.425018,249.848907 336.011139,250.676041 
	C339.502747,249.545456 342.239868,248.330917 345.096039,247.893417 
	C346.263855,247.714554 347.689209,249.216949 348.997406,249.954468 
	C348.017059,251.054565 347.239838,252.658752 346.015045,253.152252 
	C343.268524,254.258957 340.219147,254.600128 337.441345,255.646576 
	C333.903107,256.979523 332.476288,259.856262 332.732117,263.585236 
	C333.000427,267.497009 334.839447,270.722290 338.776184,270.998291 
	C342.412781,271.253235 346.151123,270.056213 349.844635,269.498657 
	C352.037903,269.587982 354.567596,270.494232 357.176025,270.948853 
	C357.978394,271.088715 359.590820,270.148895 359.777679,269.429504 
	C360.070160,268.303802 359.803894,266.069702 359.184021,265.829681 
	C355.676178,264.471375 356.616058,261.620483 356.499786,259.111206 
	C356.338440,255.629318 356.236847,252.144653 355.952972,247.865677 
M75.469360,255.079010 
	C81.158463,256.673370 80.511246,261.231812 80.371719,265.554260 
	C80.361015,265.885895 80.364456,266.218414 80.373352,266.550201 
	C80.596428,274.872650 84.177528,277.635223 92.715805,275.923950 
	C92.715805,274.496124 92.715805,273.037201 92.715805,270.993103 
	C87.039467,271.916290 87.849342,267.984985 87.516418,264.403442 
	C87.162895,260.600159 86.106590,256.862213 85.247253,252.543274 
	C88.339638,250.825668 87.658348,246.561493 87.551613,242.651779 
	C87.446503,238.801254 87.713837,235.537155 92.656265,236.046082 
	C92.656265,234.009048 92.656265,232.569870 92.656265,231.159851 
	C83.235909,229.985779 80.497192,232.297440 80.373520,241.328552 
	C80.357613,242.490356 80.373688,243.652557 80.368317,244.814560 
	C80.355370,247.614502 80.908455,250.673492 76.584183,251.008194 
	C76.115990,251.044418 75.808151,253.152435 75.469360,255.079010 
M414.712646,258.567780 
	C414.602783,261.220612 414.760681,263.923096 414.281769,266.507538 
	C413.998383,268.036926 412.979919,270.296631 411.821960,270.639282 
	C407.933960,271.789703 409.273285,273.979553 409.793213,276.231415 
	C418.725067,276.914642 421.501862,274.488190 421.642273,266.164886 
	C421.670319,264.502441 421.254425,262.703644 421.761566,261.211945 
	C422.345673,259.493805 423.743683,258.057404 424.755859,256.477936 
	C425.395203,255.480270 426.473633,254.427002 426.438202,253.431351 
	C426.404602,252.487015 425.129303,251.616867 424.484619,250.657272 
	C423.503937,249.197433 422.146271,247.792938 421.770752,246.174240 
	C421.294464,244.121094 421.720123,241.873383 421.618164,239.716110 
	C421.266388,232.271561 416.963196,229.379486 408.699280,231.781357 
	C409.400848,233.301773 409.866028,235.856689 410.782349,236.030304 
	C414.938293,236.817719 414.098785,239.783249 414.455170,242.522415 
	C414.955841,246.371063 415.870392,250.165894 416.796600,254.960403 
	C416.719360,255.076172 415.813324,256.434021 414.712646,258.567780 
M317.965759,254.478271 
	C317.976318,257.629120 317.836151,260.789215 318.028717,263.928894 
	C318.430847,270.485260 323.389008,273.187653 329.846710,270.102966 
	C329.407623,268.644501 329.277435,266.032104 328.434845,265.777496 
	C323.932404,264.416962 325.189209,260.905670 325.152130,258.005066 
	C325.038086,249.081314 325.110596,240.155197 325.110596,230.946213 
	C322.580688,230.946213 320.504761,230.946213 317.965729,230.946213 
	C317.965729,238.630600 317.965729,246.057983 317.965759,254.478271 
z"/>
<path fill="#F6F6F7" opacity="1.000000" stroke="none" 
	d="
M180.464630,251.789856 
	C183.648071,241.773758 189.805527,239.460983 200.321045,244.307785 
	C200.321045,239.903397 200.321045,235.662079 200.321045,231.084717 
	C202.954529,231.084717 205.198425,231.084717 207.678986,231.084717 
	C207.678986,244.216003 207.678986,257.278137 207.678986,271.302795 
	C204.878647,270.828705 202.272781,270.387543 198.294220,269.714020 
	C190.548721,275.405457 180.060287,270.545349 180.041107,257.159546 
	C180.038742,255.503128 180.235672,253.846405 180.464630,251.789856 
M200.388046,254.773636 
	C199.916733,250.651596 198.133591,247.702438 193.491638,248.008835 
	C188.691574,248.325668 187.807343,251.883499 187.702469,255.807587 
	C187.662781,257.292053 187.701645,258.816681 187.993927,260.264648 
	C188.801224,264.263977 191.523697,265.868286 195.320023,265.077484 
	C200.501099,263.998230 200.380096,259.683014 200.388046,254.773636 
z"/>
<path fill="#2914DD" opacity="1.000000" stroke="none" 
	d="
M392.201294,261.081604 
	C389.156189,271.786835 382.396393,274.258606 374.042328,269.359955 
	C370.632782,270.247009 368.286377,270.857483 365.337891,271.624634 
	C365.337891,257.579590 365.337891,244.389984 365.337891,230.958069 
	C367.515686,230.958069 369.599823,230.958069 372.176239,230.958069 
	C372.176239,235.654739 372.176239,240.056808 372.176239,244.947144 
	C374.192566,243.880005 375.549194,242.955139 377.043945,242.406387 
	C383.893463,239.891861 390.404144,243.637726 391.962616,251.294739 
	C392.578094,254.318909 392.201721,257.544983 392.201294,261.081604 
M380.963806,264.928284 
	C385.168732,261.799744 386.516052,254.441360 383.628967,250.372543 
	C381.674133,247.617615 377.293427,246.922867 374.802032,249.290955 
	C371.364075,252.558868 371.521210,256.708527 372.740143,260.889069 
	C373.829956,264.626556 376.611053,265.579102 380.963806,264.928284 
z"/>
<path fill="#F6F6F7" opacity="1.000000" stroke="none" 
	d="
M124.638367,232.548676 
	C132.246017,231.979248 138.596756,233.255112 142.501511,241.007095 
	C140.568298,242.219681 138.810745,243.322098 136.814865,244.573990 
	C135.973480,243.541916 135.445724,242.351288 134.546310,241.897766 
	C132.267807,240.748886 129.853531,239.222763 127.438019,239.116867 
	C120.951904,238.832520 117.699135,243.387360 117.677704,251.910141 
	C117.656319,260.418488 120.898270,264.797089 127.345581,264.967682 
	C131.758835,265.084442 134.087250,263.415192 136.989349,257.697601 
	C138.804520,258.609375 140.634048,259.528412 142.406311,260.418640 
	C140.984421,273.101379 123.542801,274.013763 116.404549,268.137238 
	C109.115601,262.136658 108.862251,253.961594 110.406517,245.746323 
	C111.788559,238.394104 116.537689,233.756851 124.638367,232.548676 
z"/>
<path fill="#2914DD" opacity="1.000000" stroke="none" 
	d="
M267.282593,271.333496 
	C259.142670,272.166473 252.615326,270.203094 248.651199,262.947144 
	C244.636368,255.598373 245.419250,244.181274 250.421646,238.303009 
	C255.710266,232.088425 262.625275,231.323135 270.040039,233.180527 
	C274.103546,234.198410 277.098053,236.662003 278.774994,241.170151 
	C276.962402,242.246796 275.293579,243.238052 273.421875,244.349808 
	C272.529602,243.379333 271.800690,242.522675 271.005829,241.732300 
	C265.751953,236.508087 256.879456,238.551529 255.085495,245.750473 
	C254.192261,249.334930 254.370148,253.321762 254.756927,257.054718 
	C255.218338,261.507935 258.121979,264.256866 262.624146,264.843018 
	C267.008606,265.413849 270.488708,263.929474 272.467468,259.703522 
	C272.736755,259.128357 273.162231,258.626343 273.715332,257.787079 
	C275.563843,258.760834 277.274628,259.662018 279.270966,260.713593 
	C277.492645,266.922577 273.692535,270.274200 267.282593,271.333496 
z"/>
<path fill="#F6F6F7" opacity="1.000000" stroke="none" 
	d="
M230.466034,241.876038 
	C239.142517,243.613113 241.743759,247.772263 240.687592,258.190399 
	C234.683777,258.190399 228.618027,258.190399 222.552277,258.190399 
	C222.223618,258.615143 221.894943,259.039886 221.566269,259.464661 
	C223.094849,261.265076 224.449966,264.351715 226.189682,264.586334 
	C229.377350,265.016174 232.792038,263.762482 236.112045,263.210785 
	C236.112488,262.713440 236.112915,262.216095 236.113358,261.718750 
	C237.595871,262.682983 239.078384,263.647247 240.536026,264.595306 
	C237.337723,270.894348 230.948181,273.165527 223.532898,270.843018 
	C216.719681,268.709045 213.411072,261.818604 214.905197,252.875031 
	C216.144348,245.457825 221.133728,241.831314 230.466034,241.876038 
M233.082031,249.634369 
	C230.701660,249.063950 228.185318,247.762833 225.987244,248.171906 
	C224.440720,248.459717 223.327072,251.073410 221.254364,253.571518 
	C225.863892,253.571518 228.860107,253.765869 231.793793,253.423828 
	C232.459946,253.346161 232.909271,251.408951 233.082031,249.634369 
z"/>
<path fill="#F6F6F7" opacity="1.000000" stroke="none" 
	d="
M148.063751,263.730194 
	C147.634216,260.102325 146.867401,256.802887 147.102234,253.576385 
	C147.578201,247.036911 152.241531,242.590744 158.614853,241.902267 
	C166.621002,241.037399 172.102890,244.213196 174.290558,250.983612 
	C176.883072,259.006958 173.927261,267.313934 167.431305,270.260559 
	C160.239822,273.522705 152.584473,271.069641 148.063751,263.730194 
M167.364212,258.882446 
	C167.281647,256.899323 167.884720,254.469955 166.953506,253.039169 
	C165.605057,250.967300 163.188858,248.378586 161.149734,248.309052 
	C159.113190,248.239578 156.516800,250.657593 155.049561,252.639404 
	C154.044785,253.996582 154.262817,256.501892 154.448608,258.444733 
	C154.785309,261.965546 156.007431,264.986877 160.321762,265.218842 
	C164.311859,265.433350 166.629318,263.630463 167.364212,258.882446 
z"/>
<path fill="#2914DD" opacity="1.000000" stroke="none" 
	d="
M306.322815,244.598663 
	C311.679840,250.484070 312.852570,258.392731 309.554993,264.675873 
	C307.015869,269.513855 301.563538,272.263306 295.687531,271.553436 
	C290.151154,270.884583 285.786682,268.402405 284.048767,262.812012 
	C282.117981,256.601288 282.326721,250.489807 287.139099,245.552765 
	C291.435852,241.144730 296.897644,241.025513 302.478485,242.599350 
	C303.730682,242.952469 304.852356,243.768463 306.322815,244.598663 
M290.973511,253.077881 
	C290.994812,255.559982 290.424774,258.255524 291.219788,260.458405 
	C291.886292,262.305145 293.942108,264.434357 295.756714,264.865784 
	C297.626862,265.310425 300.892517,264.493805 301.852570,263.078888 
	C303.295593,260.952179 303.714264,257.828125 303.740784,255.120026 
	C303.772980,251.833649 302.461548,248.813583 298.651733,248.102844 
	C295.105927,247.441345 292.447388,248.690094 290.973511,253.077881 
z"/>
<path fill="#2914DD" opacity="1.000000" stroke="none" 
	d="
M356.031311,248.263428 
	C356.236847,252.144653 356.338440,255.629318 356.499786,259.111206 
	C356.616058,261.620483 355.676178,264.471375 359.184021,265.829681 
	C359.803894,266.069702 360.070160,268.303802 359.777679,269.429504 
	C359.590820,270.148895 357.978394,271.088715 357.176025,270.948853 
	C354.567596,270.494232 352.037903,269.587982 349.844635,269.498657 
	C346.151123,270.056213 342.412781,271.253235 338.776184,270.998291 
	C334.839447,270.722290 333.000427,267.497009 332.732117,263.585236 
	C332.476288,259.856262 333.903107,256.979523 337.441345,255.646576 
	C340.219147,254.600128 343.268524,254.258957 346.015045,253.152252 
	C347.239838,252.658752 348.017059,251.054565 348.997406,249.954468 
	C347.689209,249.216949 346.263855,247.714554 345.096039,247.893417 
	C342.239868,248.330917 339.502747,249.545456 336.011139,250.676041 
	C335.425018,249.848907 334.434937,248.451767 333.490509,247.119019 
	C341.096130,239.367599 351.795837,239.885254 356.031311,248.263428 
M341.695984,259.207214 
	C341.389832,261.076782 341.083679,262.946320 340.777527,264.815887 
	C342.626373,265.082184 345.382019,266.228058 346.145233,265.441254 
	C348.041412,263.486511 349.028748,260.650208 350.381073,258.167938 
	C349.921753,257.840454 349.462433,257.512939 349.003143,257.185455 
	C346.806580,257.753143 344.610016,258.320831 341.695984,259.207214 
z"/>
<path fill="#EDEDEE" opacity="1.000000" stroke="none" 
	d="
M75.447647,254.689224 
	C75.808151,253.152435 76.115990,251.044418 76.584183,251.008194 
	C80.908455,250.673492 80.355370,247.614502 80.368317,244.814560 
	C80.373688,243.652557 80.357613,242.490356 80.373520,241.328552 
	C80.497192,232.297440 83.235909,229.985779 92.656265,231.159851 
	C92.656265,232.569870 92.656265,234.009048 92.656265,236.046082 
	C87.713837,235.537155 87.446503,238.801254 87.551613,242.651779 
	C87.658348,246.561493 88.339638,250.825668 85.247253,252.543274 
	C86.106590,256.862213 87.162895,260.600159 87.516418,264.403442 
	C87.849342,267.984985 87.039467,271.916290 92.715805,270.993103 
	C92.715805,273.037201 92.715805,274.496124 92.715805,275.923950 
	C84.177528,277.635223 80.596428,274.872650 80.373352,266.550201 
	C80.364456,266.218414 80.361015,265.885895 80.371719,265.554260 
	C80.511246,261.231812 81.158463,256.673370 75.447647,254.689224 
z"/>
<path fill="#2914DD" opacity="1.000000" stroke="none" 
	d="
M414.809967,258.179840 
	C415.813324,256.434021 416.719360,255.076172 416.796600,254.960403 
	C415.870392,250.165894 414.955841,246.371063 414.455170,242.522415 
	C414.098785,239.783249 414.938293,236.817719 410.782349,236.030304 
	C409.866028,235.856689 409.400848,233.301773 408.699280,231.781357 
	C416.963196,229.379486 421.266388,232.271561 421.618164,239.716110 
	C421.720123,241.873383 421.294464,244.121094 421.770752,246.174240 
	C422.146271,247.792938 423.503937,249.197433 424.484619,250.657272 
	C425.129303,251.616867 426.404602,252.487015 426.438202,253.431351 
	C426.473633,254.427002 425.395203,255.480270 424.755859,256.477936 
	C423.743683,258.057404 422.345673,259.493805 421.761566,261.211945 
	C421.254425,262.703644 421.670319,264.502441 421.642273,266.164886 
	C421.501862,274.488190 418.725067,276.914642 409.793213,276.231415 
	C409.273285,273.979553 407.933960,271.789703 411.821960,270.639282 
	C412.979919,270.296631 413.998383,268.036926 414.281769,266.507538 
	C414.760681,263.923096 414.602783,261.220612 414.809967,258.179840 
z"/>
<path fill="#2914DD" opacity="1.000000" stroke="none" 
	d="
M317.965759,253.981812 
	C317.965729,246.057983 317.965729,238.630600 317.965729,230.946213 
	C320.504761,230.946213 322.580688,230.946213 325.110596,230.946213 
	C325.110596,240.155197 325.038086,249.081314 325.152130,258.005066 
	C325.189209,260.905670 323.932404,264.416962 328.434845,265.777496 
	C329.277435,266.032104 329.407623,268.644501 329.846710,270.102966 
	C323.389008,273.187653 318.430847,270.485260 318.028717,263.928894 
	C317.836151,260.789215 317.976318,257.629120 317.965759,253.981812 
z"/>
<path fill="#20232B" opacity="1.000000" stroke="none" 
	d="
M200.439301,255.209412 
	C200.380096,259.683014 200.501099,263.998230 195.320023,265.077484 
	C191.523697,265.868286 188.801224,264.263977 187.993927,260.264648 
	C187.701645,258.816681 187.662781,257.292053 187.702469,255.807587 
	C187.807343,251.883499 188.691574,248.325668 193.491638,248.008835 
	C198.133591,247.702438 199.916733,250.651596 200.439301,255.209412 
z"/>
<path fill="#191C24" opacity="1.000000" stroke="none" 
	d="
M380.558289,265.012695 
	C376.611053,265.579102 373.829956,264.626556 372.740143,260.889069 
	C371.521210,256.708527 371.364075,252.558868 374.802032,249.290955 
	C377.293427,246.922867 381.674133,247.617615 383.628967,250.372543 
	C386.516052,254.441360 385.168732,261.799744 380.558289,265.012695 
z"/>
<path fill="#20232B" opacity="1.000000" stroke="none" 
	d="
M233.270203,249.981018 
	C232.909271,251.408951 232.459946,253.346161 231.793793,253.423828 
	C228.860107,253.765869 225.863892,253.571518 221.254364,253.571518 
	C223.327072,251.073410 224.440720,248.459717 225.987244,248.171906 
	C228.185318,247.762833 230.701660,249.063950 233.270203,249.981018 
z"/>
<path fill="#20232B" opacity="1.000000" stroke="none" 
	d="
M167.293976,259.270721 
	C166.629318,263.630463 164.311859,265.433350 160.321762,265.218842 
	C156.007431,264.986877 154.785309,261.965546 154.448608,258.444733 
	C154.262817,256.501892 154.044785,253.996582 155.049561,252.639404 
	C156.516800,250.657593 159.113190,248.239578 161.149734,248.309052 
	C163.188858,248.378586 165.605057,250.967300 166.953506,253.039169 
	C167.884720,254.469955 167.281647,256.899323 167.293976,259.270721 
z"/>
<path fill="#191C24" opacity="1.000000" stroke="none" 
	d="
M291.056458,252.659149 
	C292.447388,248.690094 295.105927,247.441345 298.651733,248.102844 
	C302.461548,248.813583 303.772980,251.833649 303.740784,255.120026 
	C303.714264,257.828125 303.295593,260.952179 301.852570,263.078888 
	C300.892517,264.493805 297.626862,265.310425 295.756714,264.865784 
	C293.942108,264.434357 291.886292,262.305145 291.219788,260.458405 
	C290.424774,258.255524 290.994812,255.559982 291.056458,252.659149 
z"/>
<path fill="#20232B" opacity="1.000000" stroke="none" 
	d="
M342.054718,259.047852 
	C344.610016,258.320831 346.806580,257.753143 349.003143,257.185455 
	C349.462433,257.512939 349.921753,257.840454 350.381073,258.167938 
	C349.028748,260.650208 348.041412,263.486511 346.145233,265.441254 
	C345.382019,266.228058 342.626373,265.082184 340.777527,264.815887 
	C341.083679,262.946320 341.389832,261.076782 342.054718,259.047852 
z"/>
</svg>