<?xml version="1.0" encoding="utf-8"?>
<svg version="1.1" id="Layer_1" xmlns="http://www.w3.org/2000/svg" x="0px" y="0px" width="" height="" style=""  viewBox="0.318 200.084 390.013 140.744" enable-background="new 0 0 800 800">
  <path opacity="1.000000" stroke="none" d="M 451.474 501 C 300.807 501 150.64 501 0.474 501 C 0.825 334.333 1.176 167.667 1.526 1 C 168.193 1 334.86 1 501.526 1 C 501.175 167.667 500.824 334.333 500.473 501 C 484.307 501 468.14 501 451.474 501 M 180.338 252.19 C 180.23 253.846 180.029 255.503 180.028 257.16 C 180.019 270.545 190.497 275.405 198.255 269.714 C 202.232 270.388 204.837 270.829 207.636 271.303 C 207.666 257.278 207.693 244.216 207.721 231.085 C 205.24 231.085 202.996 231.085 200.363 231.085 C 200.353 235.662 200.344 239.903 200.335 244.308 C 189.83 239.461 183.668 241.774 180.338 252.19 M 392.257 260.679 C 392.188 257.545 392.571 254.319 391.962 251.295 C 390.42 243.638 383.917 239.892 377.062 242.406 C 375.566 242.955 374.208 243.88 372.189 244.947 C 372.199 240.057 372.209 235.655 372.218 230.958 C 369.642 230.958 367.558 230.958 365.38 230.958 C 365.352 244.39 365.324 257.58 365.294 271.625 C 368.245 270.857 370.592 270.247 374.004 269.36 C 382.347 274.259 389.112 271.787 392.257 260.679 M 124.267 232.636 C 116.574 233.757 111.815 238.394 110.418 245.746 C 108.856 253.962 109.092 262.137 116.368 268.137 C 123.494 274.014 140.938 273.101 142.386 260.419 C 140.616 259.528 138.788 258.609 136.975 257.698 C 134.061 263.415 131.729 265.084 127.316 264.968 C 120.869 264.797 117.636 260.418 117.676 251.91 C 117.715 243.387 120.978 238.833 127.463 239.117 C 129.878 239.223 132.289 240.749 134.565 241.898 C 135.464 242.351 135.989 243.542 136.828 244.574 C 138.827 243.322 140.587 242.22 142.523 241.007 C 138.634 233.255 132.286 231.979 124.267 232.636 M 267.642 271.254 C 273.652 270.274 277.459 266.923 279.251 260.714 C 277.256 259.662 275.547 258.761 273.701 257.787 C 273.146 258.626 272.72 259.128 272.449 259.704 C 270.461 263.929 266.978 265.414 262.595 264.843 C 258.094 264.257 255.196 261.508 254.744 257.055 C 254.365 253.322 254.196 249.335 255.097 245.75 C 256.906 238.552 265.782 236.508 271.025 241.732 C 271.819 242.523 272.546 243.379 273.436 244.35 C 275.31 243.238 276.981 242.247 278.796 241.17 C 277.128 236.662 274.139 234.198 270.078 233.181 C 262.667 231.323 255.75 232.088 250.448 238.303 C 245.434 244.181 244.627 255.598 248.626 262.947 C 252.575 270.203 259.098 272.166 267.642 271.254 M 230.096 241.847 C 221.153 241.831 216.156 245.458 214.901 252.875 C 213.388 261.819 216.682 268.709 223.491 270.843 C 230.902 273.166 237.296 270.894 240.507 264.595 C 239.052 263.647 237.571 262.683 236.091 261.719 C 236.089 262.216 236.088 262.713 236.086 263.211 C 232.765 263.762 229.348 265.016 226.161 264.586 C 224.422 264.352 223.073 261.265 221.548 259.465 C 221.878 259.04 222.208 258.615 222.537 258.19 C 228.603 258.19 234.669 258.19 240.672 258.19 C 241.751 247.772 239.158 243.613 230.096 241.847 M 148.152 264.092 C 152.542 271.07 160.192 273.523 167.391 270.261 C 173.893 267.314 176.866 259.007 174.291 250.984 C 172.117 244.213 166.642 241.037 158.634 241.902 C 152.259 242.591 147.587 247.037 147.097 253.576 C 146.855 256.803 147.615 260.102 148.152 264.092 M 306.048 244.371 C 304.868 243.768 303.748 242.952 302.496 242.599 C 296.919 241.026 291.457 241.145 287.151 245.553 C 282.328 250.49 282.106 256.601 284.024 262.812 C 285.75 268.402 290.109 270.885 295.644 271.553 C 301.519 272.263 306.977 269.514 309.526 264.676 C 312.837 258.393 311.681 250.484 306.048 244.371 M 355.96 247.866 C 351.819 239.885 341.121 239.368 333.499 247.119 C 334.44 248.452 335.427 249.849 336.012 250.676 C 339.506 249.545 342.245 248.331 345.103 247.893 C 346.271 247.715 347.693 249.217 349 249.954 C 348.017 251.055 347.236 252.659 346.011 253.152 C 343.262 254.259 340.212 254.6 337.432 255.647 C 333.891 256.98 332.458 259.856 332.706 263.585 C 332.966 267.497 334.798 270.722 338.734 270.998 C 342.37 271.253 346.111 270.056 349.806 269.499 C 351.999 269.588 354.527 270.494 357.134 270.949 C 357.936 271.089 359.55 270.149 359.739 269.43 C 360.034 268.304 359.772 266.07 359.153 265.83 C 355.648 264.471 356.594 261.62 356.483 259.111 C 356.329 255.629 356.234 252.145 355.96 247.866 M 75.461 255.079 C 81.147 256.673 80.49 261.232 80.341 265.554 C 80.33 265.886 80.332 266.218 80.341 266.55 C 80.546 274.873 84.121 277.635 92.663 275.924 C 92.666 274.496 92.669 273.037 92.674 270.993 C 86.995 271.916 87.814 267.985 87.488 264.403 C 87.143 260.6 86.094 256.862 85.244 252.543 C 88.34 250.826 87.668 246.561 87.569 242.652 C 87.472 238.801 87.746 235.537 92.688 236.046 C 92.692 234.009 92.695 232.57 92.698 231.16 C 83.28 229.986 80.537 232.297 80.394 241.329 C 80.376 242.49 80.389 243.653 80.381 244.815 C 80.362 247.615 80.909 250.673 76.584 251.008 C 76.116 251.044 75.804 253.152 75.461 255.079 M 414.697 258.568 C 414.581 261.221 414.733 263.923 414.249 266.508 C 413.963 268.037 412.939 270.297 411.781 270.639 C 407.89 271.79 409.225 273.98 409.74 276.231 C 418.67 276.915 421.452 274.488 421.61 266.165 C 421.642 264.502 421.23 262.704 421.74 261.212 C 422.328 259.494 423.729 258.057 424.744 256.478 C 425.386 255.48 426.466 254.427 426.433 253.431 C 426.401 252.487 425.128 251.617 424.485 250.657 C 423.508 249.197 422.153 247.793 421.781 246.174 C 421.309 244.121 421.739 241.873 421.642 239.716 C 421.306 232.272 417.009 229.379 408.74 231.781 C 409.438 233.302 409.898 235.857 410.814 236.03 C 414.968 236.818 414.122 239.783 414.473 242.522 C 414.966 246.371 415.872 250.166 416.788 254.96 C 416.711 255.076 415.802 256.434 414.697 258.568 M 317.958 254.478 C 317.962 257.629 317.816 260.789 318.001 263.929 C 318.39 270.485 323.342 273.188 329.806 270.103 C 329.37 268.645 329.246 266.032 328.404 265.777 C 323.904 264.417 325.168 260.906 325.137 258.005 C 325.042 249.081 325.133 240.155 325.153 230.946 C 322.623 230.946 320.547 230.946 318.008 230.946 C 317.992 238.631 317.976 246.058 317.958 254.478 Z" style="fill: rgb(25, 28, 36);"/>
  <path fill="#F6F6F7" opacity="1.000000" stroke="none" d=" M180.464630,251.789856 C183.648071,241.773758 189.805527,239.460983 200.321045,244.307785 C200.321045,239.903397 200.321045,235.662079 200.321045,231.084717 C202.954529,231.084717 205.198425,231.084717 207.678986,231.084717 C207.678986,244.216003 207.678986,257.278137 207.678986,271.302795 C204.878647,270.828705 202.272781,270.387543 198.294220,269.714020 C190.548721,275.405457 180.060287,270.545349 180.041107,257.159546 C180.038742,255.503128 180.235672,253.846405 180.464630,251.789856 M200.388046,254.773636 C199.916733,250.651596 198.133591,247.702438 193.491638,248.008835 C188.691574,248.325668 187.807343,251.883499 187.702469,255.807587 C187.662781,257.292053 187.701645,258.816681 187.993927,260.264648 C188.801224,264.263977 191.523697,265.868286 195.320023,265.077484 C200.501099,263.998230 200.380096,259.683014 200.388046,254.773636 z"/>
  <path fill="#2914DD" opacity="1.000000" stroke="none" d=" M392.201294,261.081604 C389.156189,271.786835 382.396393,274.258606 374.042328,269.359955 C370.632782,270.247009 368.286377,270.857483 365.337891,271.624634 C365.337891,257.579590 365.337891,244.389984 365.337891,230.958069 C367.515686,230.958069 369.599823,230.958069 372.176239,230.958069 C372.176239,235.654739 372.176239,240.056808 372.176239,244.947144 C374.192566,243.880005 375.549194,242.955139 377.043945,242.406387 C383.893463,239.891861 390.404144,243.637726 391.962616,251.294739 C392.578094,254.318909 392.201721,257.544983 392.201294,261.081604 M380.963806,264.928284 C385.168732,261.799744 386.516052,254.441360 383.628967,250.372543 C381.674133,247.617615 377.293427,246.922867 374.802032,249.290955 C371.364075,252.558868 371.521210,256.708527 372.740143,260.889069 C373.829956,264.626556 376.611053,265.579102 380.963806,264.928284 z"/>
  <path fill="#F6F6F7" opacity="1.000000" stroke="none" d=" M124.638367,232.548676 C132.246017,231.979248 138.596756,233.255112 142.501511,241.007095 C140.568298,242.219681 138.810745,243.322098 136.814865,244.573990 C135.973480,243.541916 135.445724,242.351288 134.546310,241.897766 C132.267807,240.748886 129.853531,239.222763 127.438019,239.116867 C120.951904,238.832520 117.699135,243.387360 117.677704,251.910141 C117.656319,260.418488 120.898270,264.797089 127.345581,264.967682 C131.758835,265.084442 134.087250,263.415192 136.989349,257.697601 C138.804520,258.609375 140.634048,259.528412 142.406311,260.418640 C140.984421,273.101379 123.542801,274.013763 116.404549,268.137238 C109.115601,262.136658 108.862251,253.961594 110.406517,245.746323 C111.788559,238.394104 116.537689,233.756851 124.638367,232.548676 z"/>
  <path fill="#2914DD" opacity="1.000000" stroke="none" d=" M267.282593,271.333496 C259.142670,272.166473 252.615326,270.203094 248.651199,262.947144 C244.636368,255.598373 245.419250,244.181274 250.421646,238.303009 C255.710266,232.088425 262.625275,231.323135 270.040039,233.180527 C274.103546,234.198410 277.098053,236.662003 278.774994,241.170151 C276.962402,242.246796 275.293579,243.238052 273.421875,244.349808 C272.529602,243.379333 271.800690,242.522675 271.005829,241.732300 C265.751953,236.508087 256.879456,238.551529 255.085495,245.750473 C254.192261,249.334930 254.370148,253.321762 254.756927,257.054718 C255.218338,261.507935 258.121979,264.256866 262.624146,264.843018 C267.008606,265.413849 270.488708,263.929474 272.467468,259.703522 C272.736755,259.128357 273.162231,258.626343 273.715332,257.787079 C275.563843,258.760834 277.274628,259.662018 279.270966,260.713593 C277.492645,266.922577 273.692535,270.274200 267.282593,271.333496 z"/>
  <path fill="#F6F6F7" opacity="1.000000" stroke="none" d=" M230.466034,241.876038 C239.142517,243.613113 241.743759,247.772263 240.687592,258.190399 C234.683777,258.190399 228.618027,258.190399 222.552277,258.190399 C222.223618,258.615143 221.894943,259.039886 221.566269,259.464661 C223.094849,261.265076 224.449966,264.351715 226.189682,264.586334 C229.377350,265.016174 232.792038,263.762482 236.112045,263.210785 C236.112488,262.713440 236.112915,262.216095 236.113358,261.718750 C237.595871,262.682983 239.078384,263.647247 240.536026,264.595306 C237.337723,270.894348 230.948181,273.165527 223.532898,270.843018 C216.719681,268.709045 213.411072,261.818604 214.905197,252.875031 C216.144348,245.457825 221.133728,241.831314 230.466034,241.876038 M233.082031,249.634369 C230.701660,249.063950 228.185318,247.762833 225.987244,248.171906 C224.440720,248.459717 223.327072,251.073410 221.254364,253.571518 C225.863892,253.571518 228.860107,253.765869 231.793793,253.423828 C232.459946,253.346161 232.909271,251.408951 233.082031,249.634369 z"/>
  <path fill="#F6F6F7" opacity="1.000000" stroke="none" d=" M148.063751,263.730194 C147.634216,260.102325 146.867401,256.802887 147.102234,253.576385 C147.578201,247.036911 152.241531,242.590744 158.614853,241.902267 C166.621002,241.037399 172.102890,244.213196 174.290558,250.983612 C176.883072,259.006958 173.927261,267.313934 167.431305,270.260559 C160.239822,273.522705 152.584473,271.069641 148.063751,263.730194 M167.364212,258.882446 C167.281647,256.899323 167.884720,254.469955 166.953506,253.039169 C165.605057,250.967300 163.188858,248.378586 161.149734,248.309052 C159.113190,248.239578 156.516800,250.657593 155.049561,252.639404 C154.044785,253.996582 154.262817,256.501892 154.448608,258.444733 C154.785309,261.965546 156.007431,264.986877 160.321762,265.218842 C164.311859,265.433350 166.629318,263.630463 167.364212,258.882446 z"/>
  <path fill="#2914DD" opacity="1.000000" stroke="none" d=" M306.322815,244.598663 C311.679840,250.484070 312.852570,258.392731 309.554993,264.675873 C307.015869,269.513855 301.563538,272.263306 295.687531,271.553436 C290.151154,270.884583 285.786682,268.402405 284.048767,262.812012 C282.117981,256.601288 282.326721,250.489807 287.139099,245.552765 C291.435852,241.144730 296.897644,241.025513 302.478485,242.599350 C303.730682,242.952469 304.852356,243.768463 306.322815,244.598663 M290.973511,253.077881 C290.994812,255.559982 290.424774,258.255524 291.219788,260.458405 C291.886292,262.305145 293.942108,264.434357 295.756714,264.865784 C297.626862,265.310425 300.892517,264.493805 301.852570,263.078888 C303.295593,260.952179 303.714264,257.828125 303.740784,255.120026 C303.772980,251.833649 302.461548,248.813583 298.651733,248.102844 C295.105927,247.441345 292.447388,248.690094 290.973511,253.077881 z"/>
  <path fill="#2914DD" opacity="1.000000" stroke="none" d=" M356.031311,248.263428 C356.236847,252.144653 356.338440,255.629318 356.499786,259.111206 C356.616058,261.620483 355.676178,264.471375 359.184021,265.829681 C359.803894,266.069702 360.070160,268.303802 359.777679,269.429504 C359.590820,270.148895 357.978394,271.088715 357.176025,270.948853 C354.567596,270.494232 352.037903,269.587982 349.844635,269.498657 C346.151123,270.056213 342.412781,271.253235 338.776184,270.998291 C334.839447,270.722290 333.000427,267.497009 332.732117,263.585236 C332.476288,259.856262 333.903107,256.979523 337.441345,255.646576 C340.219147,254.600128 343.268524,254.258957 346.015045,253.152252 C347.239838,252.658752 348.017059,251.054565 348.997406,249.954468 C347.689209,249.216949 346.263855,247.714554 345.096039,247.893417 C342.239868,248.330917 339.502747,249.545456 336.011139,250.676041 C335.425018,249.848907 334.434937,248.451767 333.490509,247.119019 C341.096130,239.367599 351.795837,239.885254 356.031311,248.263428 M341.695984,259.207214 C341.389832,261.076782 341.083679,262.946320 340.777527,264.815887 C342.626373,265.082184 345.382019,266.228058 346.145233,265.441254 C348.041412,263.486511 349.028748,260.650208 350.381073,258.167938 C349.921753,257.840454 349.462433,257.512939 349.003143,257.185455 C346.806580,257.753143 344.610016,258.320831 341.695984,259.207214 z"/>
  <path fill="#EDEDEE" opacity="1.000000" stroke="none" d=" M75.447647,254.689224 C75.808151,253.152435 76.115990,251.044418 76.584183,251.008194 C80.908455,250.673492 80.355370,247.614502 80.368317,244.814560 C80.373688,243.652557 80.357613,242.490356 80.373520,241.328552 C80.497192,232.297440 83.235909,229.985779 92.656265,231.159851 C92.656265,232.569870 92.656265,234.009048 92.656265,236.046082 C87.713837,235.537155 87.446503,238.801254 87.551613,242.651779 C87.658348,246.561493 88.339638,250.825668 85.247253,252.543274 C86.106590,256.862213 87.162895,260.600159 87.516418,264.403442 C87.849342,267.984985 87.039467,271.916290 92.715805,270.993103 C92.715805,273.037201 92.715805,274.496124 92.715805,275.923950 C84.177528,277.635223 80.596428,274.872650 80.373352,266.550201 C80.364456,266.218414 80.361015,265.885895 80.371719,265.554260 C80.511246,261.231812 81.158463,256.673370 75.447647,254.689224 z"/>
  <path fill="#2914DD" opacity="1.000000" stroke="none" d=" M414.809967,258.179840 C415.813324,256.434021 416.719360,255.076172 416.796600,254.960403 C415.870392,250.165894 414.955841,246.371063 414.455170,242.522415 C414.098785,239.783249 414.938293,236.817719 410.782349,236.030304 C409.866028,235.856689 409.400848,233.301773 408.699280,231.781357 C416.963196,229.379486 421.266388,232.271561 421.618164,239.716110 C421.720123,241.873383 421.294464,244.121094 421.770752,246.174240 C422.146271,247.792938 423.503937,249.197433 424.484619,250.657272 C425.129303,251.616867 426.404602,252.487015 426.438202,253.431351 C426.473633,254.427002 425.395203,255.480270 424.755859,256.477936 C423.743683,258.057404 422.345673,259.493805 421.761566,261.211945 C421.254425,262.703644 421.670319,264.502441 421.642273,266.164886 C421.501862,274.488190 418.725067,276.914642 409.793213,276.231415 C409.273285,273.979553 407.933960,271.789703 411.821960,270.639282 C412.979919,270.296631 413.998383,268.036926 414.281769,266.507538 C414.760681,263.923096 414.602783,261.220612 414.809967,258.179840 z"/>
  <path fill="#2914DD" opacity="1.000000" stroke="none" d=" M317.965759,253.981812 C317.965729,246.057983 317.965729,238.630600 317.965729,230.946213 C320.504761,230.946213 322.580688,230.946213 325.110596,230.946213 C325.110596,240.155197 325.038086,249.081314 325.152130,258.005066 C325.189209,260.905670 323.932404,264.416962 328.434845,265.777496 C329.277435,266.032104 329.407623,268.644501 329.846710,270.102966 C323.389008,273.187653 318.430847,270.485260 318.028717,263.928894 C317.836151,260.789215 317.976318,257.629120 317.965759,253.981812 z"/>
  <path fill="#20232B" opacity="1.000000" stroke="none" d=" M200.439301,255.209412 C200.380096,259.683014 200.501099,263.998230 195.320023,265.077484 C191.523697,265.868286 188.801224,264.263977 187.993927,260.264648 C187.701645,258.816681 187.662781,257.292053 187.702469,255.807587 C187.807343,251.883499 188.691574,248.325668 193.491638,248.008835 C198.133591,247.702438 199.916733,250.651596 200.439301,255.209412 z"/>
  <path fill="#191C24" opacity="1.000000" stroke="none" d=" M380.558289,265.012695 C376.611053,265.579102 373.829956,264.626556 372.740143,260.889069 C371.521210,256.708527 371.364075,252.558868 374.802032,249.290955 C377.293427,246.922867 381.674133,247.617615 383.628967,250.372543 C386.516052,254.441360 385.168732,261.799744 380.558289,265.012695 z"/>
  <path fill="#20232B" opacity="1.000000" stroke="none" d=" M233.270203,249.981018 C232.909271,251.408951 232.459946,253.346161 231.793793,253.423828 C228.860107,253.765869 225.863892,253.571518 221.254364,253.571518 C223.327072,251.073410 224.440720,248.459717 225.987244,248.171906 C228.185318,247.762833 230.701660,249.063950 233.270203,249.981018 z"/>
  <path fill="#20232B" opacity="1.000000" stroke="none" d=" M167.293976,259.270721 C166.629318,263.630463 164.311859,265.433350 160.321762,265.218842 C156.007431,264.986877 154.785309,261.965546 154.448608,258.444733 C154.262817,256.501892 154.044785,253.996582 155.049561,252.639404 C156.516800,250.657593 159.113190,248.239578 161.149734,248.309052 C163.188858,248.378586 165.605057,250.967300 166.953506,253.039169 C167.884720,254.469955 167.281647,256.899323 167.293976,259.270721 z"/>
  <path fill="#191C24" opacity="1.000000" stroke="none" d=" M291.056458,252.659149 C292.447388,248.690094 295.105927,247.441345 298.651733,248.102844 C302.461548,248.813583 303.772980,251.833649 303.740784,255.120026 C303.714264,257.828125 303.295593,260.952179 301.852570,263.078888 C300.892517,264.493805 297.626862,265.310425 295.756714,264.865784 C293.942108,264.434357 291.886292,262.305145 291.219788,260.458405 C290.424774,258.255524 290.994812,255.559982 291.056458,252.659149 z"/>
  <path fill="#20232B" opacity="1.000000" stroke="none" d=" M342.054718,259.047852 C344.610016,258.320831 346.806580,257.753143 349.003143,257.185455 C349.462433,257.512939 349.921753,257.840454 350.381073,258.167938 C349.028748,260.650208 348.041412,263.486511 346.145233,265.441254 C345.382019,266.228058 342.626373,265.082184 340.777527,264.815887 C341.083679,262.946320 341.389832,261.076782 342.054718,259.047852 z"/>
</svg>